# xmcd
#
# Track frame offsets: 
#        150
#        12909
#        26457
#        39565
#        53221
#        65971
#        83790
#        111791
#        124652
#        141226
#        152833
#        164289
#        178856
#        190910
#        203659
#        216631
#        228970
#        242067
#        258065
#        271771
#
# Disc length: 3765 seconds
#
# Revision: 1
# Processed by: cddbd v1.5.2PL0 Copyright (c) Steve Scherf et al.
# Submitted via: ExactAudioCopyFreeDBPlugin 1.0
#
DISCID=1b0eb314
DTITLE=Various Artist - Kings of the Blues Guitar:  B.B. King - Fredd
DTITLE=y King - Albert King [Not Now Music]
DYEAR=2013
DGENRE=Blues
TTITLE0=B.B. King - Every Day I Have the Blues
TTITLE1=B.B. King - Sweet Little Angel
TTITLE2=B.B. King - When My Heart Beats Like a Hammer
TTITLE3=B.B. King - Three O'Clock Blues
TTITLE4=B.B. King - Please Love Me
TTITLE5=B.B. King - Hold That Train
TTITLE6=B.B. King - Sweet Sixteen
TTITLE7=B.B. King - Driving Wheel
TTITLE8=B.B. King - Walking Dr. Bill
TTITLE9=B.B. King - Early in the Morning
TTITLE10=B.B. King - Please Accept My Love
TTITLE11=B.B. King - Mr. Pawnbroker
TTITLE12=B.B. King - The Fool
TTITLE13=B.B. King - Please Set the Date
TTITLE14=B.B. King - Someday Baby
TTITLE15=B.B. King - Sugar Mama
TTITLE16=B.B. King - You've Been an Angel
TTITLE17=B.B. King - My Own Fault, Baby
TTITLE18=B.B. King - The Woman I Love
TTITLE19=B.B. King - Treat Me Right
EXTD=
EXTT0=
EXTT1=
EXTT2=
EXTT3=
EXTT4=
EXTT5=
EXTT6=
EXTT7=
EXTT8=
EXTT9=
EXTT10=
EXTT11=
EXTT12=
EXTT13=
EXTT14=
EXTT15=
EXTT16=
EXTT17=
EXTT18=
EXTT19=
PLAYORDER=
